<svg width="26" height="26" viewBox="0 0 26 26" fill="none" xmlns="http://www.w3.org/2000/svg">
<g clip-path="url(#clip0_447_2575)">
<path d="M13 17.875C15.6924 17.875 17.875 15.6924 17.875 13C17.875 10.3076 15.6924 8.125 13 8.125C10.3076 8.125 8.125 10.3076 8.125 13C8.125 15.6924 10.3076 17.875 13 17.875Z" fill="#FFAD61"/>
<path d="M13 4.875C4.875 4.875 0 12.9496 0 12.9496C0 12.9496 4.875 21.125 13 21.125C21.125 21.125 26 13 26 13C26 13 21.125 4.875 13 4.875ZM13 19.5C5.89062 19.5 2.03125 13 2.03125 13C2.03125 13 5.89062 6.5 13 6.5C20.1094 6.5 23.9688 13 23.9688 13C23.9688 13 20.1094 19.5 13 19.5Z" fill="#FFAD61"/>
</g>
<defs>
<clipPath id="clip0_447_2575">
<rect width="26" height="26" fill="white"/>
</clipPath>
</defs>
</svg>
