<svg width="13" height="13" viewBox="0 0 13 13" fill="none" xmlns="http://www.w3.org/2000/svg">
<g clip-path="url(#clip0_442_1823)">
<path d="M6.5 8.9375C7.84619 8.9375 8.9375 7.84619 8.9375 6.5C8.9375 5.15381 7.84619 4.0625 6.5 4.0625C5.15381 4.0625 4.0625 5.15381 4.0625 6.5C4.0625 7.84619 5.15381 8.9375 6.5 8.9375Z" fill="white"/>
<path d="M6.5 2.4375C2.4375 2.4375 0 6.47481 0 6.47481C0 6.47481 2.4375 10.5625 6.5 10.5625C10.5625 10.5625 13 6.5 13 6.5C13 6.5 10.5625 2.4375 6.5 2.4375ZM6.5 9.75C2.94531 9.75 1.01562 6.5 1.01562 6.5C1.01562 6.5 2.94531 3.25 6.5 3.25C10.0547 3.25 11.9844 6.5 11.9844 6.5C11.9844 6.5 10.0547 9.75 6.5 9.75Z" fill="white"/>
</g>
<defs>
<clipPath id="clip0_442_1823">
<rect width="13" height="13" fill="white"/>
</clipPath>
</defs>
</svg>
