<svg width="32" height="32" viewBox="0 0 32 32" fill="none" xmlns="http://www.w3.org/2000/svg">
<path d="M21.5 19C21.5 22.0376 19.0376 24.5 16 24.5C12.9624 24.5 10.5 22.0376 10.5 19C10.5 15.9624 12.9624 13.5 16 13.5C19.0376 13.5 21.5 15.9624 21.5 19Z" stroke="white"/>
<path d="M16 9C6 9 0 18.938 0 18.938C0 18.938 6 29 16 29C26 29 32 19 32 19C32 19 26 9 16 9ZM16 27C7.25 27 2.5 19 2.5 19C2.5 19 7.25 11 16 11C24.75 11 29.5 19 29.5 19C29.5 19 24.75 27 16 27Z" fill="white"/>
<path d="M28.5 29.5L6 7L4.34224 8.65776L26.6845 31L28.5 29.5Z" fill="white"/>
</svg>
