<svg width="25" height="25" viewBox="0 0 25 25" fill="none" xmlns="http://www.w3.org/2000/svg">
<g id="Home-icon 1" clip-path="url(#clip0_420_626)">
<path id="Vector" d="M24.1406 10.9375L21.875 8.67344V3.125C21.875 2.26562 21.1719 1.5625 20.3125 1.5625H18.75C17.8906 1.5625 17.1875 2.26562 17.1875 3.125V3.98906L14.0625 0.867188C13.6359 0.464063 13.2453 0 12.5 0C11.7547 0 11.3641 0.464063 10.9375 0.867188L0.859375 10.9375C0.371875 11.4453 0 11.8156 0 12.5C0 13.3797 0.675 14.0625 1.5625 14.0625H3.125V23.4375C3.125 24.2969 3.82812 25 4.6875 25H9.375V17.1875C9.375 16.3281 10.0781 15.625 10.9375 15.625H14.0625C14.9219 15.625 15.625 16.3281 15.625 17.1875V25H20.3125C21.1719 25 21.875 24.2969 21.875 23.4375V14.0625H23.4375C24.325 14.0625 25 13.3797 25 12.5C25 11.8156 24.6281 11.4453 24.1406 10.9375Z" fill="white"/>
</g>
<defs>
<clipPath id="clip0_420_626">
<rect width="25" height="25" fill="white"/>
</clipPath>
</defs>
</svg>
