<svg width="28" height="28" viewBox="0 0 28 28" fill="none" xmlns="http://www.w3.org/2000/svg">
<g id="movie-850 1">
<g id="Group">
<path id="Vector" d="M27.1571 3.5777H1.21118V24.1882H27.1571V3.5777Z" fill="#F9F9F9"/>
<path id="Vector_2" d="M27.1349 2.95715H14.4892H12.249H0.833653C0.458386 2.95715 0.153809 3.26173 0.153809 3.6373V10.259V24.3317C0.153809 24.7073 0.458386 25.0115 0.833653 25.0115H12.2487H14.4889H27.1346C27.5102 25.0115 27.8144 24.7069 27.8144 24.3317V10.259V3.6373C27.8147 3.26173 27.5102 2.95715 27.1349 2.95715ZM12.8754 4.62787C12.8754 4.43425 13.0324 4.27719 13.2261 4.27719H14.4892H14.8037C14.9973 4.27719 15.1543 4.43425 15.1543 4.62787V6.20547C15.1543 6.3991 14.9973 6.55615 14.8037 6.55615H14.4892H13.2261C13.0324 6.55615 12.8754 6.3991 12.8754 6.20547V4.62787ZM9.11841 4.62787C9.11841 4.43425 9.27546 4.27719 9.46909 4.27719H11.0467C11.2403 4.27719 11.3974 4.43425 11.3974 4.62787V6.20547C11.3974 6.3991 11.2403 6.55615 11.0467 6.55615H9.46909C9.27546 6.55615 9.11841 6.3991 9.11841 6.20547V4.62787ZM4.00483 23.3408C4.00483 23.5344 3.84777 23.6915 3.65415 23.6915H2.07655C1.88292 23.6915 1.72587 23.5344 1.72587 23.3408V21.7632C1.72587 21.5696 1.88292 21.4125 2.07655 21.4125H3.65415C3.84777 21.4125 4.00483 21.5696 4.00483 21.7632V23.3408ZM4.00483 6.20547C4.00483 6.3991 3.84777 6.55615 3.65415 6.55615H2.07655C1.88292 6.55615 1.72587 6.3991 1.72587 6.20547V4.62787C1.72587 4.43425 1.88292 4.27719 2.07655 4.27719H3.65415C3.84777 4.27719 4.00483 4.43425 4.00483 4.62787V6.20547ZM7.70094 23.3408C7.70094 23.5344 7.54389 23.6915 7.35026 23.6915H5.77267C5.57904 23.6915 5.42199 23.5344 5.42199 23.3408V21.7632C5.42199 21.5696 5.57904 21.4125 5.77267 21.4125H7.35026C7.54389 21.4125 7.70094 21.5696 7.70094 21.7632V23.3408ZM7.70094 6.20547C7.70094 6.3991 7.54389 6.55615 7.35026 6.55615H5.77267C5.57904 6.55615 5.42199 6.3991 5.42199 6.20547V4.62787C5.42199 4.43425 5.57904 4.27719 5.77267 4.27719H7.35026C7.54389 4.27719 7.70094 4.43425 7.70094 4.62787V6.20547ZM11.3971 23.3408C11.3971 23.5344 11.24 23.6915 11.0464 23.6915H9.46878C9.27516 23.6915 9.1181 23.5344 9.1181 23.3408V21.7632C9.1181 21.5696 9.27516 21.4125 9.46878 21.4125H11.0464C11.24 21.4125 11.3971 21.5696 11.3971 21.7632V23.3408ZM11.6297 17.7561C11.3288 17.9297 10.9523 17.7127 10.9523 17.3651V10.6036C10.9523 10.256 11.3285 10.0387 11.6297 10.2126L17.4852 13.5934C17.7861 13.767 17.7861 14.2016 17.4852 14.3756L11.6297 17.7561ZM15.154 23.3408C15.154 23.5344 14.997 23.6915 14.8033 23.6915H14.4889H13.2258C13.0321 23.6915 12.8751 23.5344 12.8751 23.3408V21.7632C12.8751 21.5696 13.0321 21.4125 13.2258 21.4125H14.4889H14.8033C14.997 21.4125 15.154 21.5696 15.154 21.7632V23.3408ZM18.8501 23.3408C18.8501 23.5344 18.6931 23.6915 18.4995 23.6915H16.9219C16.7282 23.6915 16.5712 23.5344 16.5712 23.3408V21.7632C16.5712 21.5696 16.7282 21.4125 16.9219 21.4125H18.4995C18.6931 21.4125 18.8501 21.5696 18.8501 21.7632V23.3408ZM18.8501 6.20547C18.8501 6.3991 18.6931 6.55615 18.4995 6.55615H16.9219C16.7282 6.55615 16.5712 6.3991 16.5712 6.20547V4.62787C16.5712 4.43425 16.7282 4.27719 16.9219 4.27719H18.4995C18.6931 4.27719 18.8501 4.43425 18.8501 4.62787V6.20547ZM22.5466 23.3408C22.5466 23.5344 22.3895 23.6915 22.1959 23.6915H20.6183C20.4247 23.6915 20.2676 23.5344 20.2676 23.3408V21.7632C20.2676 21.5696 20.4247 21.4125 20.6183 21.4125H22.1959C22.3895 21.4125 22.5466 21.5696 22.5466 21.7632V23.3408ZM22.5466 6.20547C22.5466 6.3991 22.3895 6.55615 22.1959 6.55615H20.6183C20.4247 6.55615 20.2676 6.3991 20.2676 6.20547V4.62787C20.2676 4.43425 20.4247 4.27719 20.6183 4.27719H22.1959C22.3895 4.27719 22.5466 4.43425 22.5466 4.62787V6.20547ZM26.2427 23.3408C26.2427 23.5344 26.0856 23.6915 25.892 23.6915H24.3144C24.1208 23.6915 23.9637 23.5344 23.9637 23.3408V21.7632C23.9637 21.5696 24.1208 21.4125 24.3144 21.4125H25.892C26.0856 21.4125 26.2427 21.5696 26.2427 21.7632V23.3408ZM26.2427 6.20547C26.2427 6.3991 26.0856 6.55615 25.892 6.55615H24.3144C24.1208 6.55615 23.9637 6.3991 23.9637 6.20547V4.62787C23.9637 4.43425 24.1208 4.27719 24.3144 4.27719H25.892C26.0856 4.27719 26.2427 4.43425 26.2427 4.62787V6.20547Z" fill="#D22215"/>
</g>
</g>
</svg>
