<svg width="25" height="20" viewBox="0 0 25 20" fill="none" xmlns="http://www.w3.org/2000/svg">
<g id="movie-videos-icon 1" clip-path="url(#clip0_420_620)">
<g id="Group">
<path id="Vector" d="M2.46989 20H6.67318H12.6607H18.5201H22.5301C23.2096 20 23.8281 19.714 24.2757 19.2568C24.7233 18.7975 25 18.1628 25 17.4656V15.977V4.02505V2.54489C25 1.8476 24.7213 1.21294 24.2757 0.753653C23.8281 0.294363 23.2096 0.0104388 22.5301 0.0104388H18.6239C18.5913 0.00417573 18.5567 0.00208785 18.5201 0.00208785C18.4855 0.00208785 18.4509 0.00417573 18.4163 0.0104388H12.7645C12.7319 0.00417573 12.6973 0.00208785 12.6607 0.00208785C12.6261 0.00208785 12.5916 0.00417573 12.557 0.0104388H6.77694C6.74439 0.00417573 6.7098 0.00208785 6.67318 0.00208785C6.63859 0.00208785 6.604 0.00417573 6.56942 0.0104388H2.46989C1.79036 0.0104388 1.17188 0.296451 0.724284 0.753653C0.276693 1.21086 0 1.8476 0 2.54489V4.02505V15.977V17.4656C0 18.1628 0.278727 18.7975 0.724284 19.2568C1.17188 19.714 1.79036 20 2.46989 20ZM11.2284 13.4781L15.4053 10.4885C15.4704 10.4468 15.5294 10.3883 15.5762 10.3194C15.7633 10.0418 15.6942 9.66388 15.4256 9.47182L11.2651 6.51983C11.1633 6.43424 11.0311 6.38205 10.8887 6.38205C10.5591 6.38205 10.2926 6.65553 10.2926 6.99374V12.9791H10.2946C10.2946 13.1002 10.3292 13.2213 10.4004 13.3278C10.5896 13.6033 10.9599 13.6701 11.2284 13.4781ZM19.1142 3.41336V1.23173H22.5281C22.88 1.23173 23.1995 1.37996 23.4314 1.61795C23.6633 1.85595 23.8078 2.18372 23.8078 2.54489V3.41336H19.1142ZM17.924 1.23173V3.41336H13.2568V1.23173H17.924ZM12.0667 1.23173V3.41336H7.26929V1.23173H12.0667ZM6.07707 1.23173V3.41336H1.19019V2.54489C1.19019 2.18372 1.33464 1.85595 1.56657 1.61795C1.7985 1.37996 2.11792 1.23173 2.46989 1.23173H6.07707ZM1.19019 4.63466H6.67318H12.6607H18.5201H23.8098V15.3653H18.5201H12.6607H6.67318H1.19019V4.63466ZM17.924 16.5866V18.7787H13.2568V16.5887H17.924V16.5866ZM19.1142 18.7787V16.5887H23.8078V17.4656C23.8078 17.8267 23.6633 18.1545 23.4314 18.3925C23.1995 18.6305 22.88 18.7787 22.5281 18.7787H19.1142ZM12.0667 16.5866V18.7787H7.26929V16.5887H12.0667V16.5866ZM6.07707 16.5866V18.7787H2.46989C2.11792 18.7787 1.7985 18.6305 1.56657 18.3925C1.33464 18.1545 1.19019 17.8267 1.19019 17.4656V16.5887H6.07707V16.5866Z" fill="#5A6B90"/>
</g>
</g>
<defs>
<clipPath id="clip0_420_620">
<rect width="25" height="20" fill="white" transform="matrix(1 0 0 -1 0 20)"/>
</clipPath>
</defs>
</svg>
