<svg xmlns="http://www.w3.org/2000/svg" width="124" height="124" viewBox="0 0 124 124" fill="none">
    <path d="M120.267 15.8439L5.3634 15.8439L5.3634 107.119H120.267V15.8439Z" fill="#F9F9F9"/>
    <path d="M120.169 13.0959L64.1668 13.0959H54.2458L3.69201 13.0959C2.03012 13.0959 0.681274 14.4447 0.681274 16.108L0.681274 45.4327L0.681274 107.754C0.681274 109.418 2.03012 110.765 3.69201 110.765H54.2444H64.1654H120.168C121.831 110.765 123.178 109.416 123.178 107.754V45.4327V16.108C123.18 14.4447 121.831 13.0959 120.169 13.0959ZM57.0197 20.4948C57.0197 19.6373 57.7152 18.9418 58.5727 18.9418H64.1668H65.5592C66.4167 18.9418 67.1122 19.6373 67.1122 20.4948V27.4813C67.1122 28.3387 66.4167 29.0343 65.5592 29.0343H64.1668H58.5727C57.7152 29.0343 57.0197 28.3387 57.0197 27.4813V20.4948ZM40.3817 20.4948C40.3817 19.6373 41.0772 18.9418 41.9347 18.9418H48.9212C49.7786 18.9418 50.4742 19.6373 50.4742 20.4948V27.4813C50.4742 28.3387 49.7786 29.0343 48.9212 29.0343L41.9347 29.0343C41.0772 29.0343 40.3817 28.3387 40.3817 27.4813V20.4948ZM17.7358 103.366C17.7358 104.224 17.0403 104.919 16.1828 104.919H9.19628C8.33879 104.919 7.64327 104.224 7.64327 103.366L7.64327 96.3798C7.64327 95.5223 8.33879 94.8268 9.19628 94.8268H16.1828C17.0403 94.8268 17.7358 95.5223 17.7358 96.3798V103.366ZM17.7358 27.4813C17.7358 28.3387 17.0403 29.0343 16.1828 29.0343H9.19628C8.33879 29.0343 7.64327 28.3387 7.64327 27.4813L7.64327 20.4948C7.64327 19.6373 8.33879 18.9418 9.19628 18.9418H16.1828C17.0403 18.9418 17.7358 19.6373 17.7358 20.4948V27.4813ZM34.1043 103.366C34.1043 104.224 33.4088 104.919 32.5513 104.919H25.5648C24.7073 104.919 24.0118 104.224 24.0118 103.366V96.3798C24.0118 95.5223 24.7073 94.8268 25.5648 94.8268H32.5513C33.4088 94.8268 34.1043 95.5223 34.1043 96.3798V103.366ZM34.1043 27.4813C34.1043 28.3387 33.4088 29.0343 32.5513 29.0343H25.5648C24.7073 29.0343 24.0118 28.3387 24.0118 27.4813V20.4948C24.0118 19.6373 24.7073 18.9418 25.5648 18.9418H32.5513C33.4088 18.9418 34.1043 19.6373 34.1043 20.4948V27.4813ZM50.4728 103.366C50.4728 104.224 49.7773 104.919 48.9198 104.919H41.9333C41.0758 104.919 40.3803 104.224 40.3803 103.366V96.3798C40.3803 95.5223 41.0758 94.8268 41.9333 94.8268H48.9198C49.7773 94.8268 50.4728 95.5223 50.4728 96.3798V103.366ZM51.5032 78.6339C50.1706 79.4029 48.5033 78.442 48.5033 76.9026V46.9585C48.5033 45.4191 50.1693 44.4568 51.5032 45.2272L77.4347 60.1992C78.7672 60.9682 78.7672 62.8928 77.4347 63.6632L51.5032 78.6339ZM67.1108 103.366C67.1108 104.224 66.4153 104.919 65.5578 104.919H64.1654H58.5713C57.7138 104.919 57.0183 104.224 57.0183 103.366V96.3798C57.0183 95.5223 57.7138 94.8268 58.5713 94.8268H64.1654H65.5578C66.4153 94.8268 67.1108 95.5223 67.1108 96.3798V103.366ZM83.4793 103.366C83.4793 104.224 82.7838 104.919 81.9263 104.919H74.9398C74.0823 104.919 73.3868 104.224 73.3868 103.366V96.3798C73.3868 95.5223 74.0823 94.8268 74.9398 94.8268H81.9263C82.7838 94.8268 83.4793 95.5223 83.4793 96.3798V103.366ZM83.4793 27.4813C83.4793 28.3387 82.7838 29.0343 81.9263 29.0343L74.9398 29.0343C74.0823 29.0343 73.3868 28.3387 73.3868 27.4813V20.4948C73.3868 19.6373 74.0823 18.9418 74.9398 18.9418H81.9263C82.7838 18.9418 83.4793 19.6373 83.4793 20.4948V27.4813ZM99.8492 103.366C99.8492 104.224 99.1537 104.919 98.2962 104.919H91.3097C90.4522 104.919 89.7567 104.224 89.7567 103.366V96.3798C89.7567 95.5223 90.4522 94.8268 91.3097 94.8268H98.2962C99.1537 94.8268 99.8492 95.5223 99.8492 96.3798V103.366ZM99.8492 27.4813C99.8492 28.3387 99.1537 29.0343 98.2962 29.0343H91.3097C90.4522 29.0343 89.7567 28.3387 89.7567 27.4813V20.4948C89.7567 19.6373 90.4522 18.9418 91.3097 18.9418H98.2962C99.1537 18.9418 99.8492 19.6373 99.8492 20.4948V27.4813ZM116.218 103.366C116.218 104.224 115.522 104.919 114.665 104.919H107.678C106.821 104.919 106.125 104.224 106.125 103.366V96.3798C106.125 95.5223 106.821 94.8268 107.678 94.8268H114.665C115.522 94.8268 116.218 95.5223 116.218 96.3798V103.366ZM116.218 27.4813C116.218 28.3387 115.522 29.0343 114.665 29.0343H107.678C106.821 29.0343 106.125 28.3387 106.125 27.4813V20.4948C106.125 19.6373 106.821 18.9418 107.678 18.9418H114.665C115.522 18.9418 116.218 19.6373 116.218 20.4948V27.4813Z" fill="#D22215"/>
</svg>