<svg width="25" height="25" viewBox="0 0 25 25" fill="none" xmlns="http://www.w3.org/2000/svg">
<g id="Retro TV-595b40b75ba036ed117d842a 1">
<path id="Vector" d="M18.164 2.24609L11.5559 6.70573L8.00773 3.41797L6.57544 4.91536L9.14705 7.29167H4.16659C3.02075 7.29167 2.08325 8.22917 2.08325 9.375V20.8333C2.08325 21.9792 3.02075 22.9167 4.16659 22.9167H20.8333C21.9791 22.9167 22.9166 21.9792 22.9166 20.8333V9.375C22.9166 8.22917 21.9791 7.29167 20.8333 7.29167H14.4205L19.3359 4.00391L18.164 2.24609ZM8.59367 9.375C9.13485 9.36117 9.7395 9.375 10.4166 9.375C15.9374 9.375 16.6666 9.375 16.6666 15.1042C16.6666 20.8333 15.8333 20.8333 10.4166 20.8333C4.99992 20.8333 4.16659 20.7292 4.16659 15.1042C4.16659 10.1823 4.80542 9.47184 8.59367 9.375ZM19.7916 13.5417C20.4166 13.5417 20.8333 13.9583 20.8333 14.5833C20.8333 15.2083 20.4166 15.625 19.7916 15.625C19.1666 15.625 18.7499 15.2083 18.7499 14.5833C18.7499 13.9583 19.1666 13.5417 19.7916 13.5417ZM19.7916 17.7083C20.4166 17.7083 20.8333 18.125 20.8333 18.75C20.8333 19.375 20.4166 19.7917 19.7916 19.7917C19.1666 19.7917 18.7499 19.375 18.7499 18.75C18.7499 18.125 19.1666 17.7083 19.7916 17.7083Z" fill="#5A6B90"/>
</g>
</svg>
